<svg xmlns="http://www.w3.org/2000/svg" width="52.597" height="50.542" viewBox="0 0 52.597 50.542">
  <g id="Grupo_4428" data-name="Grupo 4428" transform="translate(-17.528 10.921)">
    <path id="Trazado_1854" data-name="Trazado 1854" d="M9955.044,2867.831c7.131-11.025-.143,0,7.115-10.937,1.105-1.672,1.605-2.811,1.6-3.856a5.557,5.557,0,0,0-1.271-3.088,25.014,25.014,0,0,1-1.891-3.555.527.527,0,0,0-.488.2c-11.209,18.555-15.436,24.875-16.111,25.9a.064.064,0,0,0,.068.1C9945.409,2872.178,9954.667,2868.416,9955.044,2867.831Z" transform="translate(-9916.11 -2832.989)" fill="#fff" fill-rule="evenodd"/>
    <g id="Grupo_4427" data-name="Grupo 4427" transform="translate(17.528 -10.921)">
      <path id="Trazado_1855" data-name="Trazado 1855" d="M10036.433,2837.75c-5.414-12.142-11.687-25.739-17.51-38.534a.274.274,0,0,0-.479-.042c-1.816,2.681-4.09,6.524-5.279,8.45-.447.727.795,3.339,1.279,4.292,2.18,4.276,4.207,8.17,6.516,12.375a21.03,21.03,0,0,0,1.793,2.584c4.717,5.708,5.006,6.6,9.1,11.142a.558.558,0,0,0,.283.161c.652-.006,3.063.043,4.057,0A.313.313,0,0,0,10036.433,2837.75Z" transform="translate(-9983.859 -2787.654)" fill="#fff" fill-rule="evenodd"/>
      <path id="Trazado_1856" data-name="Trazado 1856" d="M9936.734,2757.9a5.723,5.723,0,0,1-2.1.722,3.587,3.587,0,0,1-1.451-.185,4.042,4.042,0,0,0-3.164.334,10.043,10.043,0,0,0-2.9,2.423c-2.537,2.924-18.793,41.966-21,46.513a.088.088,0,0,0,.08.127c.826-.008,4.852.045,4.9-.014,7.133-9.944,23.8-38.748,27.74-44.18,1.709-2.355,2.4-2.532,4.191-1.378a.1.1,0,0,0,.145-.064C9943.594,2758.486,9940.111,2756.147,9936.734,2757.9Z" transform="translate(-9906.103 -2757.307)" fill="#fff" fill-rule="evenodd"/>
    </g>
  </g>
</svg>
