<svg id="Grupo_5183" data-name="Grupo 5183" xmlns="http://www.w3.org/2000/svg" xmlns:xlink="http://www.w3.org/1999/xlink" width="192.994" height="176.425" viewBox="0 0 192.994 176.425">
  <defs>
    <clipPath id="clip-path">
      <rect id="Rectángulo_2748" data-name="Rectángulo 2748" width="192.994" height="176.425" fill="#ed7288"/>
    </clipPath>
  </defs>
  <g id="Grupo_5181" data-name="Grupo 5181" clip-path="url(#clip-path)">
    <path id="Trazado_4313" data-name="Trazado 4313" d="M228.143,312.5a9.918,9.918,0,0,0,0,19.836c5.2,0,9.918-4.522,9.68-9.68a9.684,9.684,0,0,0-9.68-10.156" transform="translate(-131.649 -188.522)" fill="#ed7288"/>
    <path id="Trazado_4314" data-name="Trazado 4314" d="M188.3,159.128a33.868,33.868,0,0,0,.08-34.277L126.249,17.258a34.231,34.231,0,0,0-59.43-.04L4.612,124.93a34.36,34.36,0,0,0,29.755,51.5h124.1a34.165,34.165,0,0,0,29.834-17.3m-13.489-7.776a18.747,18.747,0,0,1-16.385,9.482H34.327A18.492,18.492,0,0,1,18.14,151.55a18.773,18.773,0,0,1-.04-18.924L80.308,24.954a18.683,18.683,0,0,1,32.452.04l62.167,107.672a18.523,18.523,0,0,1-.119,18.686" transform="translate(0)" fill="#ed7288"/>
    <path id="Trazado_4315" data-name="Trazado 4315" d="M225.382,136.574c-4.72,1.349-7.657,5.633-7.657,10.831.239,3.134.437,6.308.675,9.442.675,11.942,1.349,23.645,2.023,35.587a7.268,7.268,0,0,0,7.419,6.982,7.418,7.418,0,0,0,7.419-7.22c0-2.46,0-4.721.238-7.221.436-7.657.913-15.314,1.349-22.971.238-4.959.674-9.918.912-14.877a12.257,12.257,0,0,0-.912-4.959,9.944,9.944,0,0,0-11.466-5.594" transform="translate(-131.347 -82.223)" fill="#ed7288"/>
  </g>
</svg>
