<svg xmlns="http://www.w3.org/2000/svg" width="33.152" height="33.151" viewBox="0 0 33.152 33.151">
  <path id="casa" d="M16.766,2.586a3.086,3.086,0,0,1,3.619,0L34.568,14.359a1.414,1.414,0,0,1-.724,2.558H31.836V33.493a1.658,1.658,0,0,1-1.658,1.658h-6.63a1.658,1.658,0,0,1-1.658-1.658v-6.63a1.658,1.658,0,0,0-1.658-1.658H16.918a1.658,1.658,0,0,0-1.658,1.658v6.63A1.658,1.658,0,0,1,13.6,35.151H6.973a1.658,1.658,0,0,1-1.658-1.658V16.918H3.308a1.414,1.414,0,0,1-.724-2.558Z" transform="translate(-2 -2)" fill="#fff" fill-rule="evenodd"/>
</svg>
