<svg xmlns="http://www.w3.org/2000/svg" width="22" height="13.933" viewBox="0 0 22 13.933">
  <g id="camion-de-carga" transform="translate(0 -112.204)">
    <g id="Grupo_4443" data-name="Grupo 4443" transform="translate(0 112.204)">
      <path id="Trazado_4274" data-name="Trazado 4274" d="M454.75,395.756a1.87,1.87,0,1,0,1.87,1.87A1.872,1.872,0,0,0,454.75,395.756Zm0,2.42a.55.55,0,1,1,.55-.55A.551.551,0,0,1,454.75,398.176Z" transform="translate(-436.6 -385.563)" fill="#2684d0"/>
      <path id="Trazado_4275" data-name="Trazado 4275" d="M401.471,179.518H398.24a.44.44,0,0,0-.44.44v8.58a.44.44,0,0,0,.44.44h.467a.439.439,0,0,0,.439-.373,2.535,2.535,0,0,1,5.009,0,.438.438,0,0,0,.439.373h.466a.44.44,0,0,0,.44-.44v-4.29a.439.439,0,0,0-.1-.282l-3.589-4.29A.44.44,0,0,0,401.471,179.518Zm-2.791,3.52v-2.2a.44.44,0,0,1,.44-.44h1.938a.44.44,0,0,1,.338.158l1.833,2.2a.44.44,0,0,1-.338.722H399.12A.44.44,0,0,1,398.68,183.038Z" transform="translate(-383.5 -177.098)" fill="#2684d0"/>
      <path id="Trazado_4276" data-name="Trazado 4276" d="M.44,124.084H1.567a.439.439,0,0,0,.439-.373,2.426,2.426,0,0,1,2.5-2.144,2.426,2.426,0,0,1,2.5,2.144.438.438,0,0,0,.439.373H12.98a.44.44,0,0,0,.44-.44v-11a.44.44,0,0,0-.44-.44H.44a.44.44,0,0,0-.44.44v11A.44.44,0,0,0,.44,124.084Z" transform="translate(0 -112.204)" fill="#2684d0"/>
      <path id="Trazado_4277" data-name="Trazado 4277" d="M75.31,395.756a1.87,1.87,0,1,0,1.87,1.87A1.872,1.872,0,0,0,75.31,395.756Zm0,2.42a.55.55,0,1,1,.55-.55A.551.551,0,0,1,75.31,398.176Z" transform="translate(-70.8 -385.563)" fill="#2684d0"/>
    </g>
  </g>
</svg>
