<svg id="Grupo_4542" data-name="Grupo 4542" xmlns="http://www.w3.org/2000/svg" xmlns:xlink="http://www.w3.org/1999/xlink" width="268.039" height="78.306" viewBox="0 0 268.039 78.306">
  <defs>
    <clipPath id="clip-path">
      <rect id="Rectángulo_2747" data-name="Rectángulo 2747" width="268.039" height="78.306" fill="#344182"/>
    </clipPath>
  </defs>
  <g id="Grupo_4541" data-name="Grupo 4541" clip-path="url(#clip-path)">
    <path id="Trazado_4286" data-name="Trazado 4286" d="M833.215,111.07c7.145-11.047-.142,0,7.129-10.959,1.107-1.675,1.608-2.816,1.605-3.864a5.6,5.6,0,0,0-1.272-3.095,24.713,24.713,0,0,1-1.9-3.563.525.525,0,0,0-.489.2c-11.231,18.592-15.468,24.926-16.146,25.949a.065.065,0,0,0,.072.1c1.343-.415,10.619-4.185,11-4.771" transform="translate(-597.189 -65.076)" fill="#344182" fill-rule="evenodd"/>
    <path id="Trazado_4287" data-name="Trazado 4287" d="M914.628,81.023c-5.426-12.166-11.713-25.791-17.545-38.613a.275.275,0,0,0-.479-.042c-1.819,2.687-4.1,6.537-5.289,8.467-.448.729.8,3.347,1.281,4.3,2.182,4.285,4.216,8.186,6.529,12.4a20.655,20.655,0,0,0,1.8,2.589c4.724,5.72,5.013,6.61,9.114,11.165a.559.559,0,0,0,.285.161c.653-.005,3.069.044,4.064,0a.311.311,0,0,0,.242-.43" transform="translate(-647.372 -30.688)" fill="#344182" fill-rule="evenodd"/>
    <path id="Trazado_4288" data-name="Trazado 4288" d="M814.944,1.1a5.692,5.692,0,0,1-2.105.722,3.6,3.6,0,0,1-1.457-.185,4.055,4.055,0,0,0-3.171.334A10.109,10.109,0,0,0,805.3,4.4c-2.542,2.93-18.829,42.052-21.044,46.608a.088.088,0,0,0,.08.128c.827-.008,4.861.045,4.9-.014,7.152-9.964,23.852-38.827,27.8-44.27,1.71-2.359,2.407-2.537,4.2-1.38a.1.1,0,0,0,.145-.065c.43-3.72-3.059-6.063-6.445-4.307" transform="translate(-569.671 -0.365)" fill="#344182" fill-rule="evenodd"/>
    <path id="Trazado_4289" data-name="Trazado 4289" d="M184.407,51.713q2.77-3.484,5.619-6.894c-6.981-2.4-9.779-9.116-9.947-15.482-.206-8.137,4.483-17.308,15.861-17.308,8.45,0,13.128,5.022,14.925,10.94,2.327-2.061,4.723-4.044,7.187-5.921C214.433,9.477,207.069,3.754,195.94,3.754c-16.686,0-24.824,12.756-24.824,25.445,0,9.335,4.281,18.377,13.291,22.514" transform="translate(-124.297 -2.727)" fill="#344182"/>
    <path id="Trazado_4290" data-name="Trazado 4290" d="M304.677,9.7q-2.765,3.486-5.611,6.9c6.984,2.394,9.791,9.1,9.964,15.471.217,8.136-4.461,17.313-15.84,17.326-8.45.012-13.135-5-14.936-10.922q-3.486,3.1-7.178,5.932c3.626,7.564,11,13.28,22.126,13.267,16.686-.021,24.808-12.788,24.792-25.475-.01-9.335-4.3-18.374-13.317-22.5" transform="translate(-196.907 -7.045)" fill="#344182"/>
    <path id="Trazado_4291" data-name="Trazado 4291" d="M44.311,44.358A25.437,25.437,0,0,1,25.969,51.53C8.04,51.53.453,39.187.384,26.638.316,14.017,8.522,1.191,25.969,1.191A24.9,24.9,0,0,1,43.689,8.57l-6.068,5.862A16.577,16.577,0,0,0,25.969,9.88c-11.655,0-16.689,8.689-16.62,16.758.069,8,4.69,16.341,16.62,16.341a17.777,17.777,0,0,0,12.136-4.9Z" transform="translate(-0.279 -0.865)" fill="#344182"/>
    <path id="Trazado_4292" data-name="Trazado 4292" d="M508.774,58.076H497.947L483.881,41.94h-8.758V58.076h-9.1V9.736c7.655,0,15.308.069,22.963.069,11.379.067,17.377,7.654,17.377,16,0,6.621-3.034,13.311-12.206,15.171l14.62,16.48Zm-33.651-39.79V33.732h13.86c5.793,0,8.275-3.861,8.275-7.722s-2.551-7.724-8.275-7.724Z" transform="translate(-338.512 -7.072)" fill="#344182"/>
    <path id="Trazado_4293" data-name="Trazado 4293" d="M656.785,13.309c-1.656-2.758-6.205-5.378-11.447-5.378-6.758,0-10,2.828-10,6.414,0,4.206,4.964,5.377,10.756,6.067,10.069,1.242,19.447,3.863,19.447,15.379,0,10.757-9.518,15.379-20.274,15.379-9.861,0-17.448-3.035-21.033-11.862l7.586-3.93c2.137,5.309,7.723,7.654,13.584,7.654,5.724,0,11.1-2,11.1-7.241,0-4.552-4.758-6.412-11.17-7.1-9.862-1.172-18.964-3.793-18.964-14.62,0-9.93,9.793-14,18.688-14.066,7.517,0,15.309,2.138,18.964,9.584Z" transform="translate(-453.439 -0.001)" fill="#344182"/>
    <path id="Trazado_4294" data-name="Trazado 4294" d="M0,263.965l.611-1.355a4.563,4.563,0,0,0,2.563.811c1.066,0,1.5-.355,1.5-.832,0-1.454-4.516-.455-4.516-3.341,0-1.32,1.065-2.419,3.273-2.419a5.211,5.211,0,0,1,2.7.688l-.555,1.365a4.389,4.389,0,0,0-2.153-.61c-1.065,0-1.476.4-1.476.888,0,1.432,4.517.444,4.517,3.3,0,1.3-1.077,2.408-3.3,2.408a5.539,5.539,0,0,1-3.163-.9" transform="translate(0 -186.558)" fill="#344182"/>
    <path id="Trazado_4295" data-name="Trazado 4295" d="M47.53,260.846a4.257,4.257,0,1,1,4.25,4.018,4.02,4.02,0,0,1-4.25-4.018m6.681,0a2.431,2.431,0,1,0-2.43,2.486,2.37,2.37,0,0,0,2.43-2.486" transform="translate(-34.525 -186.558)" fill="#344182"/>
    <path id="Trazado_4296" data-name="Trazado 4296" d="M104.75,257.314h1.8v6.3h3.9v1.465H104.75Z" transform="translate(-76.089 -186.91)" fill="#344182"/>
    <path id="Trazado_4297" data-name="Trazado 4297" d="M149.846,261.665v-4.351h1.8V261.6c0,1.476.644,2.086,1.731,2.086s1.731-.61,1.731-2.086v-4.284h1.776v4.351a3.518,3.518,0,1,1-7.036,0" transform="translate(-108.846 -186.91)" fill="#344182"/>
    <path id="Trazado_4298" data-name="Trazado 4298" d="M201.471,260.846a4.278,4.278,0,0,1,7.413-2.641l-1.154,1.065a2.5,2.5,0,0,0-1.953-.91,2.486,2.486,0,1,0,0,4.972,2.476,2.476,0,0,0,1.953-.921l1.154,1.066a4.27,4.27,0,0,1-7.413-2.631" transform="translate(-146.346 -186.558)" fill="#344182"/>
    <rect id="Rectángulo_2744" data-name="Rectángulo 2744" width="1.798" height="7.769" transform="translate(69.549 70.404)" fill="#344182"/>
    <path id="Trazado_4299" data-name="Trazado 4299" d="M286.916,260.846a4.257,4.257,0,1,1,4.25,4.018,4.02,4.02,0,0,1-4.25-4.018m6.681,0a2.431,2.431,0,1,0-2.431,2.486,2.37,2.37,0,0,0,2.431-2.486" transform="translate(-208.413 -186.558)" fill="#344182"/>
    <path id="Trazado_4300" data-name="Trazado 4300" d="M351.262,257.314v7.769h-1.476l-3.874-4.716v4.716h-1.776v-7.769h1.487l3.862,4.717v-4.717Z" transform="translate(-249.977 -186.91)" fill="#344182"/>
    <path id="Trazado_4301" data-name="Trazado 4301" d="M404.129,263.64v1.443h-6.015v-7.769h5.871v1.443H399.9v1.687h3.606v1.4H399.9v1.8Z" transform="translate(-289.186 -186.91)" fill="#344182"/>
    <path id="Trazado_4302" data-name="Trazado 4302" d="M444.3,263.965l.61-1.355a4.565,4.565,0,0,0,2.563.811c1.066,0,1.5-.355,1.5-.832,0-1.454-4.517-.455-4.517-3.341,0-1.32,1.066-2.419,3.274-2.419a5.212,5.212,0,0,1,2.7.688l-.556,1.365a4.386,4.386,0,0,0-2.152-.61c-1.065,0-1.476.4-1.476.888,0,1.432,4.516.444,4.516,3.3,0,1.3-1.076,2.408-3.3,2.408a5.534,5.534,0,0,1-3.163-.9" transform="translate(-322.738 -186.558)" fill="#344182"/>
    <path id="Trazado_4303" data-name="Trazado 4303" d="M540.518,257.314h1.8v6.3h3.9v1.465h-5.693Z" transform="translate(-392.626 -186.91)" fill="#344182"/>
    <path id="Trazado_4304" data-name="Trazado 4304" d="M583.949,260.846a4.258,4.258,0,1,1,4.251,4.018,4.021,4.021,0,0,1-4.251-4.018m6.682,0a2.432,2.432,0,1,0-2.431,2.486,2.37,2.37,0,0,0,2.431-2.486" transform="translate(-424.174 -186.558)" fill="#344182"/>
    <path id="Trazado_4305" data-name="Trazado 4305" d="M645.124,260.724h1.643v3.152a5.367,5.367,0,0,1-3.141.988,4.024,4.024,0,1,1,.033-8.035,4.143,4.143,0,0,1,3.252,1.342l-1.154,1.065a2.634,2.634,0,0,0-2.008-.876,2.486,2.486,0,1,0-.023,4.972,2.858,2.858,0,0,0,1.4-.333Z" transform="translate(-464.442 -186.558)" fill="#344182"/>
    <rect id="Rectángulo_2745" data-name="Rectángulo 2745" width="1.799" height="7.769" transform="translate(189.789 70.404)" fill="#344182"/>
    <path id="Trazado_4306" data-name="Trazado 4306" d="M725.928,263.965l.611-1.355a4.568,4.568,0,0,0,2.564.811c1.066,0,1.5-.355,1.5-.832,0-1.454-4.516-.455-4.516-3.341,0-1.32,1.066-2.419,3.273-2.419a5.211,5.211,0,0,1,2.7.688l-.555,1.365a4.392,4.392,0,0,0-2.154-.61c-1.066,0-1.476.4-1.476.888,0,1.432,4.517.444,4.517,3.3,0,1.3-1.078,2.408-3.3,2.408a5.543,5.543,0,0,1-3.163-.9" transform="translate(-527.306 -186.558)" fill="#344182"/>
    <path id="Trazado_4307" data-name="Trazado 4307" d="M774.117,258.779h-2.486v-1.465h6.77v1.465h-2.486v6.3h-1.8Z" transform="translate(-560.504 -186.91)" fill="#344182"/>
    <rect id="Rectángulo_2746" data-name="Rectángulo 2746" width="1.797" height="7.769" transform="translate(224.664 70.404)" fill="#344182"/>
    <path id="Trazado_4308" data-name="Trazado 4308" d="M853.832,260.846a4.278,4.278,0,0,1,7.413-2.641l-1.154,1.065a2.5,2.5,0,0,0-1.954-.91,2.486,2.486,0,0,0,0,4.972,2.475,2.475,0,0,0,1.954-.921l1.154,1.066a4.271,4.271,0,0,1-7.413-2.631" transform="translate(-620.214 -186.558)" fill="#344182"/>
    <path id="Trazado_4309" data-name="Trazado 4309" d="M908.392,263.418h-3.608l-.687,1.665h-1.842l3.462-7.769h1.776l3.475,7.769H909.08Zm-.566-1.365-1.232-2.974-1.232,2.974Z" transform="translate(-655.387 -186.91)" fill="#344182"/>
    <path id="Trazado_4310" data-name="Trazado 4310" d="M956.028,263.965l.61-1.355a4.569,4.569,0,0,0,2.564.811c1.066,0,1.5-.355,1.5-.832,0-1.454-4.516-.455-4.516-3.341,0-1.32,1.066-2.419,3.273-2.419a5.209,5.209,0,0,1,2.7.688l-.554,1.365a4.4,4.4,0,0,0-2.154-.61c-1.065,0-1.475.4-1.475.888,0,1.432,4.517.444,4.517,3.3,0,1.3-1.077,2.408-3.3,2.408a5.541,5.541,0,0,1-3.162-.9" transform="translate(-694.448 -186.558)" fill="#344182"/>
    <path id="Trazado_4311" data-name="Trazado 4311" d="M695.253,248.291h1.662l-1.791,1.425h-1.207Z" transform="translate(-504.054 -180.356)" fill="#344182"/>
  </g>
</svg>
