<svg xmlns="http://www.w3.org/2000/svg" xmlns:xlink="http://www.w3.org/1999/xlink" width="21.783" height="18.63" viewBox="0 0 21.783 18.63">
  <defs>
    <clipPath id="clip-path">
      <rect id="Rectángulo_2722" data-name="Rectángulo 2722" width="21.783" height="18.63" fill="#2684d0"/>
    </clipPath>
  </defs>
  <g id="Grupo_4442" data-name="Grupo 4442" transform="translate(7 5)">
    <g id="Grupo_4441" data-name="Grupo 4441" transform="translate(-7 -5)" clip-path="url(#clip-path)">
      <path id="Trazado_4273" data-name="Trazado 4273" d="M73.1,3.64v7.794a.333.333,0,0,0,.2.314l6.282,3.121v-8Zm7.048,11.229,6.292-3.121a.341.341,0,0,0,.186-.314V3.64L80.143,6.869v8ZM86.3,3.159,80.015.038a.353.353,0,0,0-.314,0L76.766,1.5l6.439,3.2ZM76.118,1.824l-2.7,1.335,6.439,3.21,2.7-1.345Z" transform="translate(-69.093 0.663)" fill="#2684d0" fill-rule="evenodd"/>
      <path id="Trazado_4274" data-name="Trazado 4274" d="M11.582,253.74a.373.373,0,0,1-.175-.044L1.7,248.513a.373.373,0,0,1,.021-.668l1.933-.883a.373.373,0,1,1,.309.678l-1.248.57,8.873,4.737,9.365-4.757-2.126-.969a.373.373,0,0,1,.309-.678l2.83,1.29a.373.373,0,0,1,.014.671l-10.228,5.2A.372.372,0,0,1,11.582,253.74Z" transform="translate(-0.817 -235.793)" fill="#2684d0"/>
    </g>
  </g>
</svg>
