<svg id="Grupo_394" data-name="Grupo 394" xmlns="http://www.w3.org/2000/svg" width="11.344" height="11.344" viewBox="0 0 11.344 11.344">
  <path id="Trazado_1910" data-name="Trazado 1910" d="M71.01,81.695a.584.584,0,0,1-.412-1L80.774,70.521a.584.584,0,0,1,.825.825L71.423,81.523A.585.585,0,0,1,71.01,81.695Z" transform="translate(-70.427 -70.351)" fill="#9b9ca0"/>
  <path id="Trazado_1911" data-name="Trazado 1911" d="M81.187,81.695a.579.579,0,0,1-.412-.171L70.6,71.347a.584.584,0,0,1,.825-.825L81.6,80.7a.584.584,0,0,1-.412,1Z" transform="translate(-70.427 -70.351)" fill="#9b9ca0"/>
</svg>
